<?xml version="1.0" encoding="utf-8"?>
<svg version="1.1" id="Black" xmlns="http://www.w3.org/2000/svg" xmlns:xlink="http://www.w3.org/1999/xlink" x="0px" y="0px" viewBox="0 0 75 75" style="enable-background:new 0 0 75 75;" xml:space="preserve">
<style type="text/css">
	.st0{fill:#2D2D2D;}
	.st1{fill:#FFFFFF;}
</style>
<g id="b_pawn">
	<g>
		<path class="st0" d="M18.4,71.3V60.8h8.5l5.4-17.3v-1.1c-3.1-1.8-5-5.2-5-8.8c0-5.6,4.6-10.2,10.2-10.2S47.7,28,47.7,33.6
			c0,3.6-1.9,6.9-5,8.8v1.2l5.5,17.2h9v10.5H18.4z"/>
		<path class="st1" d="M37.6,23.6c5.5,0,10,4.5,10,10c0,3.7-2,6.9-5,8.6v1.3L48.1,61H57v10H18.6V61h8.5l5.5-17.4v-1.3
			c-3-1.7-5-4.9-5-8.6C27.6,28.1,32.1,23.6,37.6,23.6 M37.6,23.1c-5.8,0-10.5,4.7-10.5,10.5c0,3.6,1.9,7,5,8.9v1l-5.4,17h-8.1h-0.5
			V61v10v0.5h0.5H57h0.5V71V61v-0.5H57h-8.6l-5.4-17v-1c3.1-1.9,5-5.3,5-8.9C48,27.8,43.3,23.1,37.6,23.1L37.6,23.1z"/>
	</g>
	<path d="M34.6,61l1.5-13.5l6.5-5L28.8,28.8c-0.8,1.4-1.2,3-1.2,4.8c0,3.7,2,6.9,5,8.6v1.3L27.1,61h-8.5v10h12V61H34.6z"/>
</g>
</svg>
