<?xml version="1.0" encoding="utf-8"?>
<!-- Generator: Adobe Illustrator 21.1.0, SVG Export Plug-In . SVG Version: 6.00 Build 0)  -->
<svg version="1.1" id="Layer_1" xmlns="http://www.w3.org/2000/svg" xmlns:xlink="http://www.w3.org/1999/xlink" x="0px" y="0px"
	 viewBox="0 0 75 75" style="enable-background:new 0 0 75 75;" xml:space="preserve">
<style type="text/css">
	.st0{fill:#FFFFFF;}
	.st1{fill:#CCCCCC;}
</style>
<g id="pawn">
	<g>
		<path class="st0" d="M48.1,62l-5.5-17.4v-1.3c3-1.7,5-4.9,5-8.6c0-5.5-4.5-10-10-10s-10,4.5-10,10c0,3.7,2,6.9,5,8.6v1.3L27.1,62
			h-8.5v10H57V62H48.1z"/>
	</g>
	<path class="st1" d="M34.6,62l1.5-13.5l6.5-5L28.8,29.8c-0.8,1.4-1.2,3-1.2,4.8c0,3.7,2,6.9,5,8.6v1.3L27.1,62h-8.5v10h12V62H34.6z
		"/>
</g>
</svg>
