<?xml version="1.0" encoding="utf-8"?>
<svg version="1.1" id="Black" xmlns="http://www.w3.org/2000/svg" xmlns:xlink="http://www.w3.org/1999/xlink" x="0px" y="0px" viewBox="0 0 75 75" style="enable-background:new 0 0 75 75;" xml:space="preserve">
<style type="text/css">
	.st0{fill:#2D2D2D;}
	.st1{fill:#FFFFFF;}
</style>
<g id="b_queen">
	<g>
		<polygon class="st0" points="17.8,71.3 17.8,60.8 24.3,60.8 29.2,36.1 29.2,34.2 18.1,10.4 24.2,11.5 24.2,16.1 29.7,22.5 
			29.7,13.8 26.7,10.3 29.9,3.8 34.7,9.2 33.2,12.7 36.9,21.5 40.6,12.7 39.1,9.2 44,3.8 47.2,10.3 44.2,13.8 44.2,22.5 49.6,16.1 
			49.6,11.5 55.8,10.4 44.7,34.2 44.7,36.1 49.6,60.8 56.1,60.8 56.1,71.3 		"/>
		<path class="st1" d="M43.9,4.2l3,6l-3,3.5v9.5l6-7v-4.5l5.5-1l-11,23.4l0,0v2l5,24.9h6.5v10H18V61h6.5l5-24.9v-2l-11-23.4l5.5,1
			v4.5l6,7v-9.5l-3-3.5l3-6l4.5,5L33,12.7l4,9.5l4-9.5l-1.5-3.5L43.9,4.2 M29.8,3.4L29.5,4l-3,6l-0.1,0.3l0.2,0.3l2.9,3.3v7.9
			l-5-5.8v-4.3v-0.4l-0.4-0.1l-5.5-1l-1-0.2l0.4,0.9l11,23.3V36l-4.9,24.5H18h-0.5V61v10v0.5H18h37.9h0.5V71V61v-0.5h-0.5h-6.1
			L44.9,36v-1.8l10.9-23.3l0.4-0.9l-1,0.2l-5.5,1l-0.4,0.1v0.4V16l-5,5.8v-7.9l2.9-3.3l0.2-0.3L47.3,10l-3-6L44,3.4l-0.5,0.5l-4.5,5
			l-0.2,0.2L39,9.4l1.4,3.3L37,20.9l-3.4-8.2L35,9.4V9.1l-0.2-0.2l-4.5-5L29.8,3.4L29.8,3.4z"/>
	</g>
	<polygon points="39.4,27.7 43.9,4.3 43.9,4.2 39.4,9.2 40.9,12.7 37,22.1 	"/>
	<polygon points="35.4,18.6 35.4,18.7 35.9,19.8 	"/>
	<polygon points="44.4,34.1 35.9,34.1 30,4.2 27,10.2 30,13.7 30,23.2 24,16.2 24,11.7 18.5,10.7 29.5,34.1 29.5,36.1 24.5,61 
		18,61 18,71 30,71 30,61 34.4,61 35.4,41.1 44.4,36.1 	"/>
</g>
</svg>
