<?xml version="1.0" encoding="utf-8"?>
<!-- Generator: Adobe Illustrator 21.1.0, SVG Export Plug-In . SVG Version: 6.00 Build 0)  -->
<svg version="1.1" id="Layer_1" xmlns="http://www.w3.org/2000/svg" xmlns:xlink="http://www.w3.org/1999/xlink" x="0px" y="0px"
	 viewBox="0 0 75 75" style="enable-background:new 0 0 75 75;" xml:space="preserve">
<style type="text/css">
	.st0{fill:#CCCCCC;}
	.st1{fill:#FFFFFF;}
</style>
<g id="bischop">
	<polygon class="st0" points="40.3,17.9 44.8,23.4 41.8,25.9 37.9,21.4 	"/>
	<polygon class="st1" points="49.8,62.1 43.8,37.8 43.8,36.3 51.2,26.4 46.8,20.9 41.8,25.9 37.9,21.4 43.3,15.4 38.3,9 37.9,9 
		24.5,26.4 31.9,36.3 31.9,37.8 25.9,62.1 19,62.1 19,72 57.2,72 57.2,62.1 	"/>
	<polygon class="st0" points="35.4,62.1 36.9,42.2 43.8,37.8 43.8,36.3 35.9,26.4 24.5,26.4 31.9,36.3 31.9,37.8 25.9,62.1 19,62.1 
		19,72 30.9,72 30.9,62.1 	"/>
</g>
</svg>
