<?xml version="1.0" encoding="utf-8"?>
<svg version="1.1" id="White" xmlns="http://www.w3.org/2000/svg" xmlns:xlink="http://www.w3.org/1999/xlink" x="0px" y="0px" viewBox="0 0 75 75" style="enable-background:new 0 0 75 75;" xml:space="preserve">
<style type="text/css">
	.st0{fill:#FFFFFF;}
	.st1{fill:#CCCCCC;}
</style>
<g id="w_king">
	<g>
		<path class="st0" d="M17.8,71.3V60.8h6.6L31.3,39v-1.4l-7-14v-1.1l0.1-0.2c0.1-0.1,3.7-3.1,9.7-3.9l1.2-5v-2.2H34l-3.3,1.1V5.7
			L34,6.8h1.2V6.1l-1.7-3.3h7.3l-1.7,3.3v0.7h1.3l3.3-1.1v6.7l-3.3-1.1h-1.2v2.3l1.3,5.1c3.2,0.6,6.4,1.8,9.6,3.7l0.1,0.1v1.2l-7,14
			V39l6.5,21.8h7v10.5H17.8z"/>
		<path d="M40.5,3L39,6v1h1.5l3-1v6l-3-1H39v2.5l1.3,5.3c2.9,0.5,6.2,1.6,9.7,3.7v1l-7,14V39l6.6,22h6.9v10H18V61h6.5l7-22v-1.5
			l-7-14v-0.9v-0.1c0,0,3.6-3.1,9.7-3.8l1.3-5.2V11H34l-3,1V6l3,1h1.5V6L34,3H40.5 M41.3,2.5h-0.8H34h-0.8l0.4,0.7L35,6.1v0.4h-0.9
			l-2.9-1l-0.7-0.2V6v6v0.7l0.7-0.2l2.9-1H35v1.9l-1.2,4.8c-5.9,0.8-9.5,3.8-9.6,3.9L24,22.3v0.2v0.1v0.9v0.1l0.1,0.1L31,37.6v1.3
			l-6.9,21.6H18h-0.5V61v10v0.5H18h38.5H57V71V61v-0.5h-0.5H50l-6.5-21.6v-1.3l6.9-13.9l0.1-0.1v-0.1v-1v-0.3l-0.2-0.1
			c-3.1-1.9-6.3-3.1-9.5-3.7l-1.2-4.9v-1.9h0.9l2.9,1l0.7,0.2V12V6V5.3l-0.7,0.2l-2.9,1h-0.9V6.1L41,3.2L41.3,2.5L41.3,2.5z"/>
	</g>
	<g>
		<path class="st1" d="M35.5,11v2.5l-1.3,5.2l0,0l3.3-0.2V3H34l1.5,3v1H34l-3-1v6l3-1H35.5z"/>
		<polygon class="st1" points="37,38 34,23 24.5,23 24.5,23.5 31.5,37.5 31.5,39 24.5,61 18,61 18,71 30,71 30,61 34,61 36.5,43.5 
			43,39.5 43,39 43,38 		"/>
	</g>
</g>
</svg>
