<?xml version="1.0" encoding="utf-8"?>
<!-- Generator: Adobe Illustrator 21.1.0, SVG Export Plug-In . SVG Version: 6.00 Build 0)  -->
<svg version="1.1" id="Layer_1" xmlns="http://www.w3.org/2000/svg" xmlns:xlink="http://www.w3.org/1999/xlink" x="0px" y="0px"
	 viewBox="0 0 75 75" style="enable-background:new 0 0 75 75;" xml:space="preserve">
<style type="text/css">
	.st0{fill:#FFFFFF;}
	.st1{fill:#CCCCCC;}
</style>
<g id="king">
	<g>
		<polygon class="st0" points="35.5,10 35.5,12.5 34,16.5 40.5,16.5 39,12.5 39,10 40.5,10 43.5,11 43.5,5 40.5,6 39,6 39,5 40.5,2 
			34,2 35.5,5 35.5,6 34,6 31,5 31,11 34,10 		"/>
		<path class="st0" d="M49.6,62L43,40v-1.5l7-14v-1c-15-9-25.5,0-25.5,0v0.1v0.9l7,14V40l-7,22H18v10h38.5V62H49.6z"/>
	</g>
	<polygon class="st1" points="34,2 35.5,5 35.5,6 34,6 31,5 31,11 34,10 35.5,10 35.5,12.5 34,16.5 37.5,16.5 37.5,2 	"/>
	<polygon class="st1" points="34,62 36.5,44.5 43,40.5 43,40 43,39 37,39 34,24 24.5,24 24.5,24.5 31.5,38.5 31.5,40 24.5,62 18,62 
		18,72 30,72 30,62 	"/>
</g>
</svg>
