<?xml version="1.0" encoding="utf-8"?>
<!-- Generator: Adobe Illustrator 21.1.0, SVG Export Plug-In . SVG Version: 6.00 Build 0)  -->
<svg version="1.1" id="Layer_1" xmlns="http://www.w3.org/2000/svg" xmlns:xlink="http://www.w3.org/1999/xlink" x="0px" y="0px"
	 viewBox="0 0 75 75" style="enable-background:new 0 0 75 75;" xml:space="preserve">
<style type="text/css">
	.st0{fill:#FFFFFF;}
	.st1{fill:#CCCCCC;}
</style>
<g id="knight">
	<path class="st0" d="M18.5,62.2v10h38.6v-10h-11l8-7v-0.5L37.6,38.1c0,0,5.5-6,12,1l5.5-7L32.6,17l0,0c0,0-23.1,12-7,33.6L21,55.1
		l8.5,7H18.5z"/>
	<path class="st1" d="M41.6,62.2l2-6.5v-0.5c0,0-35.4-13-10.7-37.9L32.6,17c0,0-23.1,12-7,33.6L21,55.1l8.5,7h-11v10h15.1v-10H41.6z
		"/>
</g>
</svg>
