<?xml version="1.0" encoding="utf-8"?>
<svg version="1.1" id="White" xmlns="http://www.w3.org/2000/svg" xmlns:xlink="http://www.w3.org/1999/xlink" x="0px" y="0px" viewBox="0 0 75 75" style="enable-background:new 0 0 75 75;" xml:space="preserve">
<style type="text/css">
	.st0{fill:#FFFFFF;}
	.st1{fill:#CCCCCC;}
</style>
<g id="w_knight">
	<g>
		<path class="st0" d="M18.3,71.5V60.9h10.6l-8.2-6.8l4.6-4.6c-4.8-6.5-6.5-12.8-5.2-18.7c2.2-9.8,12.3-15.1,12.4-15.2l0.1-0.1
			L55.5,31l-5.9,7.5l-0.2-0.2c-2-2.2-4.2-3.3-6.4-3.3c-2.6,0-4.5,1.6-5.1,2.2l16.5,16.5v0.7l-7.6,6.7h10.6v10.5H18.3z"/>
		<path d="M32.6,16l22.6,15.1l-5.5,7c-2.4-2.6-4.7-3.4-6.6-3.4c-3.3,0-5.5,2.4-5.5,2.4l16.6,16.6v0.5l-8,7h11v10H18.5v-10h11l-8.5-7
			l4.5-4.5C9.5,28,32.6,16,32.6,16 M32.6,15.4l-0.3,0.1c-0.4,0.2-10.3,5.5-12.5,15.3c-1.4,5.9,0.4,12.2,5.1,18.7l-4.2,4.2l-0.4,0.4
			l0.4,0.4l7.5,6.1h-9.6H18v0.5v10v0.5h0.5h38.6h0.5v-0.5v-10v-0.5h-0.5h-9.7l7-6.1l0.2-0.1v-0.2v-0.5v-0.2l-0.1-0.1L38.3,37.1
			c0.7-0.6,2.5-1.9,4.8-1.9c2.1,0,4.2,1.1,6.2,3.2l0.4,0.4l0.4-0.5l5.5-7l0.3-0.4l-0.4-0.3L32.9,15.6L32.6,15.4L32.6,15.4z"/>
	</g>
	<path class="st1" d="M41.6,61.2l2-6.5v-0.5c0,0-35.4-13-10.7-37.9L32.6,16c0,0-23.1,12-7,33.6L21,54.1l8.5,7h-11v10h15.1v-10H41.6z
		"/>
</g>
</svg>
