<?xml version="1.0" encoding="utf-8"?>
<!-- Generator: Adobe Illustrator 21.1.0, SVG Export Plug-In . SVG Version: 6.00 Build 0)  -->
<svg version="1.1" id="Layer_1" xmlns="http://www.w3.org/2000/svg" xmlns:xlink="http://www.w3.org/1999/xlink" x="0px" y="0px"
	 viewBox="0 0 75 75" style="enable-background:new 0 0 75 75;" xml:space="preserve">
<style type="text/css">
	.st0{fill:#FFFFFF;}
	.st1{fill:#CCCCCC;}
</style>
<g id="queen">
	<polygon class="st0" points="49.4,62 44.4,37.1 44.4,35.1 44.4,35.1 55.4,11.7 49.9,12.7 49.9,17.2 43.9,24.2 43.9,14.7 46.9,11.2 
		43.9,5.2 39.4,10.2 40.9,13.7 36.9,23.2 32.9,13.7 34.4,10.2 30,5.2 27,11.2 30,14.7 30,24.2 24,17.2 24,12.7 18.5,11.7 29.5,35.1 
		29.5,37.1 24.5,62 18,62 18,72 55.9,72 55.9,62 	"/>
	<polygon class="st1" points="39.4,28.7 43.9,5.3 43.9,5.2 39.4,10.2 40.9,13.7 37,23.1 	"/>
	<polygon class="st1" points="35.4,19.6 35.4,19.7 35.9,20.8 	"/>
	<polygon class="st1" points="44.4,35.1 35.9,35.1 30,5.2 27,11.2 30,14.7 30,24.2 24,17.2 24,12.7 18.5,11.7 29.5,35.1 29.5,37.1 
		24.5,62 18,62 18,72 30,72 30,62 34.4,62 35.4,42.1 44.4,37.1 44.4,35.1 	"/>
</g>
</svg>
