<?xml version="1.0" encoding="utf-8"?>
<svg version="1.1" id="Layer_1" xmlns="http://www.w3.org/2000/svg" xmlns:xlink="http://www.w3.org/1999/xlink" x="0px" y="0px" viewBox="0 0 75 75" style="enable-background:new 0 0 75 75;" xml:space="preserve">
<style type="text/css">
	.st0{fill:#FFFFFF;}
	.st1{fill:#CCCCCC;}
</style>
<g id="w_rook">
	<g>
		<polygon class="st0" points="17.8,71.3 17.8,60.8 24.7,60.8 26.7,37.4 21.2,34 21.2,15.8 27.2,15.8 27.2,22.2 32.6,22.2 
			32.6,16.8 42,16.8 42,22.2 47.5,22.2 47.5,15.8 53.4,15.8 53.4,34 48,37.4 49.9,60.8 56.4,60.8 56.4,71.3 		"/>
		<path d="M53.2,16v17.9l-5.4,3.5l2,23.8h6.4V71H18v-9.9h6.9l2-23.8l-5.4-3.5V16h5.4v6.5h5.9V17h8.9v5.5h5.9V16H53.2 M53.7,15.5
			h-0.5h-5.4h-0.5V16v6h-4.9v-5v-0.5h-0.5H33h-0.5V17v5h-4.9v-6v-0.5h-0.5h-5.4H21V16v17.9v0.3l0.2,0.1l5.2,3.3l-1.9,23H18h-0.5v0.5
			V71v0.5H18h38.1h0.5V71v-9.9v-0.5h-0.5h-6l-1.9-23l5.2-3.3l0.2-0.1v-0.3V16v-0.5H53.7z"/>
	</g>
	<g>
		<polyline class="st1" points="30.4,71 30.4,61.1 33.9,61.1 34.8,45.2 53.2,33.9 29.9,33.9 29.9,22.5 26.9,22.5 26.9,16 21.5,16 
			21.5,33.9 26.9,37.3 24.9,61.1 18,61.1 18,71 30.4,71 		"/>
		<rect x="32.9" y="17" class="st1" width="4.5" height="5.5"/>
	</g>
</g>
</svg>
