<?xml version="1.0" encoding="utf-8"?>
<!-- Generator: Adobe Illustrator 21.1.0, SVG Export Plug-In . SVG Version: 6.00 Build 0)  -->
<svg version="1.1" id="Layer_1" xmlns="http://www.w3.org/2000/svg" xmlns:xlink="http://www.w3.org/1999/xlink" x="0px" y="0px"
	 viewBox="0 0 75 75" style="enable-background:new 0 0 75 75;" xml:space="preserve">
<style type="text/css">
	.st0{fill:#FFFFFF;}
	.st1{fill:#CCCCCC;}
</style>
<g id="rook">
	<polygon class="st0" points="49.7,62.1 47.7,38.3 53.2,34.9 53.2,19 47.7,19 47.7,23.5 41.8,23.5 41.8,19 32.9,19 32.9,23.5 
		26.9,23.5 26.9,19 21.5,19 21.5,34.9 26.9,38.3 24.9,62.1 18,62.1 18,72 56.1,72 56.1,62.1 	"/>
	<polyline class="st1" points="30.4,72 30.4,62.1 33.9,62.1 34.8,46.2 53.2,34.9 29.9,34.9 29.9,23.5 26.9,23.5 26.9,19 21.5,19 
		21.5,34.9 26.9,38.3 24.9,62.1 18,62.1 18,72 30.4,72 	"/>
	<rect x="32.9" y="19" class="st1" width="4.5" height="4.5"/>
</g>
</svg>
